<svg width="25" height="25" viewBox="0 0 25 25" fill="none" xmlns="http://www.w3.org/2000/svg">
<path d="M7.09158 0C7.57482 0 7.96658 0.391555 7.96658 0.874562L7.96625 2.51125H17.3625L17.3627 0.885177C17.3627 0.402169 17.7544 0.0106149 18.2377 0.0106149C18.7209 0.0106149 19.1127 0.402169 19.1127 0.885177L19.1125 2.51125L22.5 2.51127C23.8807 2.51127 25 3.63 25 5.01002V22.5013C25 23.8813 23.8807 25 22.5 25H2.5C1.11929 25 0 23.8813 0 22.5013V5.01002C0 3.63 1.11929 2.51127 2.5 2.51127L6.21625 2.51125L6.21658 0.874562C6.21658 0.391555 6.60833 0 7.09158 0ZM1.75 9.6775V22.5013C1.75 22.9153 2.08579 23.2509 2.5 23.2509H22.5C22.9142 23.2509 23.25 22.9153 23.25 22.5013V9.695L1.75 9.6775ZM8.33333 18.2733V20.356H6.25V18.2733H8.33333ZM13.5417 18.2733V20.356H11.4583V18.2733H13.5417ZM18.75 18.2733V20.356H16.6667V18.2733H18.75ZM8.33333 13.3022V15.3849H6.25V13.3022H8.33333ZM13.5417 13.3022V15.3849H11.4583V13.3022H13.5417ZM18.75 13.3022V15.3849H16.6667V13.3022H18.75ZM6.21625 4.26L2.5 4.2604C2.08579 4.2604 1.75 4.59601 1.75 5.01002V7.92875L23.25 7.94625V5.01002C23.25 4.59601 22.9142 4.2604 22.5 4.2604L19.1125 4.26L19.1127 5.42122C19.1127 5.90422 18.7209 6.29578 18.2377 6.29578C17.7544 6.29578 17.3627 5.90422 17.3627 5.42122L17.3625 4.26H7.96625L7.96658 5.4106C7.96658 5.89361 7.57482 6.28516 7.09158 6.28516C6.60833 6.28516 6.21658 5.89361 6.21658 5.4106L6.21625 4.26Z" fill="#9E9E9E"/>
</svg>
